# xmcd
# Track frame offsets:
# 182
# 19472
# 35900
# 50160
# 68192
# 81785
# 95570
# 109595
# 133482
# 146830
# 159495
# 173032
# 188417
# 201862
# 215287
# 233667
# 249630
# 262720
# 276080
#
# Disc length: 3943 seconds
# Revision: 0
# Processed by: cddbd v1.5.2PL0 Copyright (c) Steve Scherf et al.
# Submitted via: VisiTrax 2.10.3.257 - For more info visit www.synapsa.com
#
DISCID=180f6513
DTITLE=Luiz Carlos Borges - Sucessos de Ouro
DYEAR=1998
DGENRE=Música Gaúcha
TTITLE0=Suíte Para Ana Terra
TTITLE1=Mais Um Inverno
TTITLE2=Vovó Polaca
TTITLE3=Carito
TTITLE4=Solo Livre
TTITLE5=Apurate José
TTITLE6=Km 11
TTITLE7=Lições do Rio
TTITLE8=Dom Pedro Raimundo
TTITLE9=La Bailanta
TTITLE10=Baile de Fronteira
TTITLE11=Viejo Caa Caty
TTITLE12=Jogo Duro
TTITLE13=Na Chama do Chamamé
TTITLE14=Amigos do Tambo
TTITLE15=O Mundo Muda
TTITLE16=Cacho de Uva
TTITLE17=El Forasteiro
TTITLE18=Trem Expresso
EXTD=
EXTT0=
EXTT1=
EXTT2=
EXTT3=
EXTT4=
EXTT5=
EXTT6=
EXTT7=
EXTT8=
EXTT9=
EXTT10=
EXTT11=
EXTT12=
EXTT13=
EXTT14=
EXTT15=
EXTT16=
EXTT17=
EXTT18=
PLAYORDER=
